<?xml version="1.0" standalone="no"?>
<svg xmlns="http://www.w3.org/2000/svg" viewBox="0 0 132 70" width="132" height="70"><g fill="#b11e1e" color="#b11e1e" transform="translate(48.345 0) scale(0.2734375) "><svg width="128.0" height="128.0" x="0.0" y="0.0" viewBox="0 0 128 128"><title></title><path d="M18.136,82.99786c-4.5423,11.39252-4.67877,20.96863.60913,26.257,2.71094,2.71094,6.54395,3.998,11.17383,3.998a41.83871,41.83871,0,0,0,15.084-3.387C49.84674,121.13281,56.52136,128,64,128s14.1535-6.86743,18.99725-18.1347a41.84066,41.84066,0,0,0,15.0838,3.38666c4.62793,0,8.46387-1.28711,11.17383-3.99707,5.2879-5.28839,5.15143-14.8645.60913-26.257C121.13208,78.15405,128,71.47906,128,64s-6.86792-14.15405-18.136-18.99786c4.5423-11.39252,4.67877-20.96863-.60913-26.257C103.966,13.45673,94.39,13.593,82.99756,18.13525,78.15381,6.86768,71.47888,0,64,0,56.52094,0,49.84595,6.86792,45.0022,18.13586c-11.39221-4.54242-20.96826-4.67908-26.25708.60925-5.2879,5.28839-5.15143,14.8645-.60913,26.257C6.86792,49.84595,0,56.52094,0,64S6.86792,78.15405,18.136,82.99786Zm3.43726,23.42889c-4.12073-4.12115-3.69537-12.18951.27325-21.96228a100.74734,100.74734,0,0,0,17.21082,4.47821A100.74953,100.74953,0,0,0,43.5354,106.1532C33.76349,110.12109,25.69562,110.54639,21.57324,106.42676Zm15.4931-38.06244Q35.31485,66.18005,33.70953,64q1.60437-2.1785,3.35681-4.36432C37.02716,61.07831,37,62.52991,37,64S37.02716,66.92169,37.06635,68.36432Zm-5.81647-7.8147a98.95732,98.95732,0,0,1-7.77594-13.33582A98.95864,98.95864,0,0,1,38.4021,43.28235q-.65579,4.687-1.01208,9.69574Q34.10281,56.76352,31.24988,60.54962ZM37.39,75.02191q.35229,5.00116,1.01208,9.69574a98.95864,98.95864,0,0,1-14.92816-3.93146,98.95732,98.95732,0,0,1,7.77594-13.33582Q34.10028,71.2283,37.39,75.02191ZM47.73633,47.73633q3.38214-3.38214,6.85565-6.43658Q59.20313,41.00742,64,41q4.78894,0,9.40808.29974,3.46307,3.05063,6.85559,6.43658,3.38425,3.38425,6.43689,6.86023Q86.99252,59.20551,87,64q0,4.78647-.29944,9.40344-3.05228,3.46518-6.43689,6.86023-3.38425,3.38425-6.86023,6.43689Q68.79449,86.99252,64,87q-4.78647,0-9.40344-.29944-3.46518-3.05237-6.86023-6.43689-3.38425-3.38425-6.43689-6.86023Q41.00748,68.79449,41,64q0-4.78647.29944-9.40344Q44.35172,51.13138,47.73633,47.73633Zm-5.86707.30457q.306-2.78275.7124-5.45923,2.67462-.40594,5.45911-.71234c-1.04767.99225-2.09314,1.99945-3.13257,3.03888S42.86151,46.99316,41.86926,48.04089ZM59.62476,37.06665q2.18939-1.756,4.37518-3.36017,2.18372,1.60812,4.37512,3.36017C66.92889,37.02722,65.47375,37,64,37S61.07092,37.02722,59.62476,37.06665ZM79.959,41.86926q2.78275.306,5.45935.7124.406,2.67471.7124,5.45923c-.99225-1.04773-1.99951-2.09326-3.03894-3.13269S81.00671,42.86157,79.959,41.86926Zm6.17175,38.08984q-.306,2.78275-.7124,5.45923-2.6716.40558-5.45288.71167,1.56866-1.4859,3.12634-3.03821C84.13123,82.05237,85.13849,81.00684,86.13074,79.95911ZM68.36438,90.93365q-2.18427,1.7515-4.3645,3.35693-2.1785-1.60437-4.36438-3.35693C61.07819,90.9729,62.52985,91,64,91S66.92175,90.97284,68.36438,90.93365ZM48.03473,86.13q-2.77954-.30579-5.45306-.71167-.406-2.67471-.7124-5.45923c.99225,1.04773,1.99951,2.09326,3.03894,3.13269Q46.4646,84.64819,48.03473,86.13Zm-4.75238,3.4679q4.68457.65543,9.69055,1.01166,3.78571,3.28784,7.57281,6.14337a98.93892,98.93892,0,0,1-13.332,7.773A98.95712,98.95712,0,0,1,43.28235,89.5979ZM64,124c-5.82672,0-11.23035-6.00427-15.33435-15.71844a100.86955,100.86955,0,0,0,15.33472-9.01013,100.85719,100.85719,0,0,0,15.33417,9.00964C75.23053,117.99561,69.82684,124,64,124Zm16.786-19.47333A98.95035,98.95035,0,0,1,67.45435,96.7533q3.77847-2.85123,7.57318-6.14374,4.99814-.3522,9.69012-1.01166A98.95554,98.95554,0,0,1,80.786,104.52667Zm25.64075,1.90009c-4.12122,4.12164-12.18964,3.69629-21.96252-.27258a100.752,100.752,0,0,0,4.47845-17.21149,100.74734,100.74734,0,0,0,17.21082-4.47821C110.12213,94.23724,110.54749,102.3056,106.42676,106.42676ZM90.93365,59.63568Q92.68515,61.81995,94.29047,64q-1.60437,2.1785-3.35681,4.36432C90.97284,66.92169,91,65.47009,91,64S90.97284,61.07831,90.93365,59.63568ZM90.61,52.97809q-.35229-5.00116-1.01208-9.69574a98.95864,98.95864,0,0,1,14.92816,3.93146,98.95732,98.95732,0,0,1-7.77594,13.33582Q93.89972,56.7717,90.61,52.97809Zm0,22.04382q3.2872-3.78543,6.14014-7.57153a98.95732,98.95732,0,0,1,7.77594,13.33582A98.95864,98.95864,0,0,1,89.5979,84.71765Q90.25369,80.03061,90.61,75.02191ZM124,64c0,5.82764-6.006,11.23212-15.723,15.3363A100.74259,100.74259,0,0,0,99.274,64,100.74259,100.74259,0,0,0,108.277,48.6637C117.994,52.76788,124,58.17236,124,64ZM98.04395,18.66992c3.53418,0,6.41016.93164,8.38281,2.90332,4.12073,4.12115,3.69537,12.18951-.27325,21.96228a100.74734,100.74734,0,0,0-17.21082-4.47821,100.7499,100.7499,0,0,0-4.47839-17.21118A37.46624,37.46624,0,0,1,98.04395,18.66992ZM84.71765,38.4021q-4.68713-.65579-9.696-1.01208-3.78415-3.286-7.569-6.13824a99.02219,99.02219,0,0,1,13.33344-7.77832A98.94871,98.94871,0,0,1,84.71765,38.4021ZM64,4c5.82751,0,11.23181,6.00574,15.336,15.72223a100.74627,100.74627,0,0,0-15.33661,9.0036A100.75519,100.75519,0,0,0,48.6637,19.7229C52.76788,10.006,58.17236,4,64,4ZM47.21393,23.47357a99.02874,99.02874,0,0,1,13.33282,7.778q-3.77664,2.84985-7.569,6.13849-5.00089.3522-9.69537,1.01208A98.95423,98.95423,0,0,1,47.21393,23.47357ZM21.57324,21.57324c1.97266-1.97266,4.84766-2.90332,8.38281-2.90332a37.46542,37.46542,0,0,1,13.57959,3.17633,100.74855,100.74855,0,0,0-4.47833,17.21106A100.74734,100.74734,0,0,0,21.8465,43.53552C17.87787,33.76276,17.45251,25.6944,21.57324,21.57324ZM19.723,48.6637A100.74259,100.74259,0,0,0,28.726,64,100.74259,100.74259,0,0,0,19.723,79.3363C10.006,75.23212,4,69.82764,4,64S10.006,52.76788,19.723,48.6637Z"></path><path d="M64,81A17,17,0,1,0,47,64,17.019,17.019,0,0,0,64,81Zm0-30A13,13,0,1,1,51,64,13.01505,13.01505,0,0,1,64,51Z"></path><path d="M64,72a8,8,0,1,0-8-8A8.00917,8.00917,0,0,0,64,72Zm0-12a4,4,0,1,1-4,4A4.004,4.004,0,0,1,64,60Z"></path></svg></g><line x1="49.394000000000005" y1="41" x2="82.29400000000001" y2="41" stroke="#000000" stroke-linecap="round"></line><path fill="#000000" fill-rule="nonzero" d="M3.34 0.96L3.34 18.05L0 18.05L0 0.96L3.34 0.96ZM14.14 9.74L14.14 12.65L6.74 12.65L6.74 9.74L14.14 9.74ZM26.66 11.16L30.48 18.05L26.62 18.05L23.28 11.71L20.88 11.71L20.88 18.05L17.54 18.05L17.54 4.63Q17.54 2.71 18.43 1.84Q19.32 0.96 21.41 0.96L21.41 0.96L24.24 0.96Q26.78 0.96 28.28 2.51Q29.78 4.06 29.78 6.43L29.78 6.43Q29.78 8.16 28.88 9.42Q27.98 10.68 26.66 11.16L26.66 11.16ZM24.02 8.93Q25.08 8.93 25.76 8.20Q26.45 7.46 26.45 6.37Q26.45 5.28 25.79 4.61Q25.13 3.94 24.02 3.94L24.02 3.94L22.37 3.94Q20.88 3.94 20.88 5.45L20.88 5.45L20.88 8.93L24.02 8.93ZM43.27 11.93L43.27 11.93L35.28 11.93Q35.28 13.80 35.87 14.66Q36.46 15.53 38.23 15.53L38.23 15.53Q39.38 15.53 39.94 14.80Q40.49 14.06 40.49 13.39L40.49 13.39L43.30 13.39Q43.30 15.96 41.92 17.16Q40.54 18.36 38.27 18.36Q36 18.36 34.75 17.71L34.75 17.71Q32.18 16.39 32.18 10.70L32.18 10.70Q32.18 7.32 33.65 5.75Q35.11 4.18 38.11 4.18L38.11 4.18Q43.32 4.18 43.32 9.96L43.32 9.96Q43.32 10.58 43.27 11.93ZM35.35 9.79L35.35 9.79L40.49 9.79Q40.49 8.21 39.89 7.49Q39.29 6.77 38.05 6.77Q36.82 6.77 36.08 7.50Q35.35 8.23 35.35 9.79ZM55.58 4.25L55.58 18.05L53.50 18.05L52.54 16.39L49.20 18.19Q46.42 18.19 45.46 16.18L45.46 16.18Q44.98 15.19 44.80 14.05Q44.62 12.91 44.62 11.68Q44.62 10.44 44.64 9.85Q44.66 9.26 44.76 8.48Q44.86 7.70 45.04 7.18Q45.22 6.65 45.55 6.08Q45.89 5.52 46.37 5.18L46.37 5.18Q47.45 4.44 49.18 4.44L49.18 4.44L52.46 4.44L55.58 4.25ZM50.09 14.90L52.46 13.68L52.46 7.25L50.09 7.25Q48.77 7.25 48.25 8.26Q47.74 9.26 47.74 11.27Q47.74 13.27 48.23 14.09Q48.72 14.90 50.09 14.90L50.09 14.90ZM65.98 13.03L65.98 13.03L68.81 13.01Q68.78 13.20 68.76 13.70Q68.74 14.21 68.72 14.39Q68.71 14.57 68.66 14.95Q68.62 15.34 68.56 15.52Q68.50 15.70 68.40 15.98L68.40 15.98Q67.97 17.23 66.05 17.95L66.05 17.95Q64.82 18.38 63.49 18.38Q62.16 18.38 61.08 17.95Q60 17.52 59.38 16.85L59.38 16.85Q57.96 15.36 57.96 11.27Q57.96 7.18 59.38 5.69L59.38 5.69Q60 5.02 61.08 4.58Q62.16 4.15 63.48 4.15L63.48 4.15Q66.07 4.15 67.42 5.45Q68.76 6.74 68.76 9.05L68.76 9.05L65.93 9.05Q65.93 7.99 65.40 7.48Q64.87 6.96 63.44 6.96Q62.02 6.96 61.55 7.85Q61.08 8.74 61.08 10.51L61.08 10.51L61.08 11.76Q61.08 14.62 62.18 15.26L62.18 15.26Q62.69 15.58 63.50 15.58Q64.32 15.58 64.84 15.42Q65.35 15.26 65.58 14.88Q65.81 14.50 65.88 14.12Q65.95 13.75 65.98 13.03ZM77.28 15.41L77.28 18.05L75.34 18.05Q73.56 18.05 72.64 16.99Q71.71 15.94 71.71 14.47L71.71 14.47L71.71 7.27L70.39 7.27L70.39 4.90L71.71 4.90L71.71 2.21L74.83 2.21L74.83 4.90L77.04 4.90L77.04 7.27L74.83 7.27L74.83 14.28Q74.83 15.41 75.91 15.41L75.91 15.41L77.28 15.41ZM91.63 13.01L91.63 13.01Q91.63 15.43 89.86 16.81Q88.08 18.19 85.32 18.19L85.32 18.19Q83.14 18.19 81.10 16.99L81.10 16.99Q80.09 16.37 79.44 15.23Q78.79 14.09 78.79 12.62L78.79 12.62L81.82 12.48Q81.82 13.78 82.92 14.50Q84.02 15.22 85.37 15.22L85.37 15.22Q88.37 15.22 88.37 13.10L88.37 13.10Q88.37 11.38 86.33 11.06L86.33 11.06L83.54 10.78Q81.46 10.46 80.23 9.29Q79.01 8.11 79.01 5.90Q79.01 3.70 80.76 2.26Q82.51 0.82 85.19 0.82Q87.86 0.82 89.50 2.17Q91.13 3.53 91.13 5.66L91.13 5.66L88.15 5.81Q87.74 3.72 85.34 3.72L85.34 3.72Q83.88 3.72 83.05 4.34Q82.22 4.97 82.22 5.82Q82.22 6.67 82.82 7.16Q83.42 7.66 84.31 7.78L84.31 7.78L87.05 8.06Q91.63 8.69 91.63 13.01ZM104.64 8.76L104.64 18.05L101.52 18.05L101.52 9.46Q101.52 7.25 99.79 7.25L99.79 7.25L96.82 8.42L96.82 18.05L93.70 18.05L93.70 0L96.82 0L96.82 5.98L100.78 4.20Q102.89 4.20 103.76 5.40Q104.64 6.60 104.64 8.76L104.64 8.76ZM115.13 11.86L115.13 11.86L115.13 10.61Q115.13 8.83 114.61 7.90Q114.10 6.96 112.46 6.96L112.46 6.96Q109.82 6.96 109.82 10.51L109.82 10.51L109.82 11.76Q109.82 15.58 112.46 15.58L112.46 15.58Q114.17 15.58 114.70 14.30L114.70 14.30Q115.13 13.30 115.13 11.86ZM118.25 11.14L118.25 11.14Q118.25 15.58 116.57 17.09L116.57 17.09Q115.15 18.38 112.46 18.38L112.46 18.38Q109.03 18.38 107.83 16.37L107.83 16.37Q106.70 14.52 106.70 11.14L106.70 11.14Q106.70 7.97 107.83 6.17L107.83 6.17Q109.08 4.15 112.38 4.15Q115.68 4.15 116.96 5.92Q118.25 7.68 118.25 11.14ZM131.69 10.82L131.69 10.82Q131.69 16.18 128.93 17.66L128.93 17.66Q127.80 18.26 126.17 18.26L126.17 18.26L123.86 16.78L123.86 22.13L120.74 22.13L120.74 4.44L126.89 4.44Q129.67 4.44 130.68 6.01Q131.69 7.58 131.69 10.82ZM128.57 11.30L128.57 11.30Q128.57 7.25 125.98 7.25L125.98 7.25L123.86 7.25L123.86 13.61L125.98 14.98Q127.37 14.98 127.97 14.10Q128.57 13.22 128.57 11.30Z" transform="translate(0, 47)"></path></svg>